{"glyphs":{"0":{"ha":1389,"x_min":0,"x_max":1282,"o":"m 214 962 l 1068 962 l 1068 855 l 1282 855 l 1282 0 l 1068 0 l 1068 -107 l 214 -107 l 214 0 l 0 0 l 0 855 l 214 855 l 214 962 m 321 855 l 321 0 l 962 0 l 962 855 l 321 855 z "},"1":{"ha":1389,"x_min":0,"x_max":1282,"o":"m 427 962 l 855 962 l 855 0 l 1282 0 l 1282 -107 l 0 -107 l 0 0 l 534 0 l 534 641 l 214 641 l 214 748 l 321 748 l 321 855 l 427 855 l 427 962 z "},"2":{"ha":1389,"x_min":0,"x_max":1175,"o":"m 107 962 l 962 962 l 962 855 l 1068 855 l 1068 748 l 1175 748 l 1175 427 l 855 427 l 855 321 l 641 321 l 641 214 l 427 214 l 427 107 l 1175 107 l 1175 -107 l 0 -107 l 0 214 l 107 214 l 107 321 l 427 321 l 427 427 l 641 427 l 641 534 l 855 534 l 855 748 l 214 748 l 214 641 l 0 641 l 0 855 l 107 855 l 107 962 z "},"3":{"ha":1389,"x_min":0,"x_max":1282,"o":"m 0 962 l 1282 962 l 1282 427 l 1068 427 l 1068 321 l 1175 321 l 1175 214 l 1282 214 l 1282 -107 l 1175 -107 l 1175 -214 l 107 -214 l 107 -107 l 0 -107 l 0 214 l 107 214 l 107 107 l 214 107 l 214 0 l 962 0 l 962 214 l 855 214 l 855 321 l 427 321 l 427 427 l 748 427 l 748 534 l 855 534 l 855 641 l 1068 641 l 1068 748 l 0 748 l 0 962 z "},"4":{"ha":1389,"x_min":0,"x_max":1282,"o":"m 427 962 l 748 962 l 748 855 l 641 855 l 641 748 l 534 748 l 534 641 l 427 641 l 427 534 l 321 534 l 321 427 l 214 427 l 214 321 l 962 321 l 962 962 l 1282 962 l 1282 -214 l 962 -214 l 962 214 l 0 214 l 0 534 l 107 534 l 107 641 l 214 641 l 214 748 l 321 748 l 321 855 l 427 855 l 427 962 z "},"5":{"ha":1389,"x_min":0,"x_max":1282,"o":"m 0 962 l 1282 962 l 1282 641 l 1175 641 l 1175 748 l 321 748 l 321 427 l 1175 427 l 1175 321 l 1282 321 l 1282 -107 l 1175 -107 l 1175 -214 l 107 -214 l 107 -107 l 0 -107 l 0 0 l 321 0 l 321 -107 l 855 -107 l 855 0 l 962 0 l 962 214 l 855 214 l 855 321 l 0 321 l 0 962 z "},"6":{"ha":1389,"x_min":0,"x_max":1282,"o":"m 534 962 l 1068 962 l 1068 855 l 1175 855 l 1175 748 l 534 748 l 534 641 l 427 641 l 427 427 l 534 427 l 534 534 l 1175 534 l 1175 427 l 1282 427 l 1282 -107 l 1175 -107 l 1175 -214 l 107 -214 l 107 -107 l 0 -107 l 0 427 l 107 427 l 107 534 l 214 534 l 214 641 l 321 641 l 321 748 l 427 748 l 427 855 l 534 855 l 534 962 m 641 427 l 641 321 l 427 321 l 427 214 l 321 214 l 321 0 l 962 0 l 962 427 l 641 427 z "},"7":{"ha":1389,"x_min":0,"x_max":1282,"o":"m 0 962 l 1282 962 l 1282 427 l 1175 427 l 1175 321 l 962 321 l 962 214 l 855 214 l 855 107 l 748 107 l 748 0 l 641 0 l 641 -107 l 534 -107 l 534 -214 l 214 -214 l 214 -107 l 321 -107 l 321 0 l 427 0 l 427 107 l 534 107 l 534 214 l 641 214 l 641 321 l 748 321 l 748 427 l 855 427 l 855 534 l 962 534 l 962 748 l 107 748 l 107 641 l 0 641 l 0 962 z "},"8":{"ha":1389,"x_min":0,"x_max":1175,"o":"m 214 962 l 962 962 l 962 855 l 1175 855 l 1175 534 l 962 534 l 962 427 l 1175 427 l 1175 -107 l 962 -107 l 962 -214 l 214 -214 l 214 -107 l 0 -107 l 0 427 l 214 427 l 214 534 l 0 534 l 0 855 l 214 855 l 214 962 m 427 855 l 427 748 l 321 748 l 321 641 l 427 641 l 427 534 l 748 534 l 748 641 l 855 641 l 855 748 l 748 748 l 748 855 l 427 855 m 427 427 l 427 321 l 321 321 l 321 0 l 427 0 l 427 -107 l 748 -107 l 748 0 l 855 0 l 855 321 l 748 321 l 748 427 l 427 427 z "},"9":{"ha":1389,"x_min":0,"x_max":1282,"o":"m 214 962 l 1175 962 l 1175 855 l 1282 855 l 1282 214 l 1175 214 l 1175 107 l 1068 107 l 1068 0 l 962 0 l 962 -107 l 748 -107 l 748 -214 l 107 -214 l 107 -107 l 427 -107 l 427 0 l 748 0 l 748 107 l 855 107 l 855 214 l 107 214 l 107 321 l 0 321 l 0 748 l 107 748 l 107 855 l 214 855 l 214 962 m 427 855 l 427 748 l 321 748 l 321 427 l 427 427 l 427 321 l 855 321 l 855 427 l 962 427 l 962 748 l 855 748 l 855 855 l 427 855 z "}," ":{"ha":1389,"x_min":0,"x_max":0,"o":""},"!":{"ha":1389,"x_min":427,"x_max":748,"o":"m 427 855 l 748 855 l 748 107 l 427 107 l 427 855 m 427 0 l 748 0 l 748 -214 l 427 -214 l 427 0 z "},"(":{"ha":1389,"x_min":534,"x_max":962,"o":"m 748 962 l 962 962 l 962 855 l 855 855 l 855 -107 l 962 -107 l 962 -214 l 748 -214 l 748 -107 l 641 -107 l 641 0 l 534 0 l 534 748 l 641 748 l 641 855 l 748 855 l 748 962 z "},")":{"ha":1389,"x_min":534,"x_max":962,"o":"m 534 962 l 748 962 l 748 855 l 855 855 l 855 748 l 962 748 l 962 0 l 855 0 l 855 -107 l 748 -107 l 748 -214 l 534 -214 l 534 -107 l 641 -107 l 641 855 l 534 855 l 534 962 z "},"+":{"ha":1389,"x_min":107,"x_max":1175,"o":"m 534 748 l 748 748 l 748 427 l 1175 427 l 1175 214 l 748 214 l 748 -107 l 534 -107 l 534 214 l 107 214 l 107 427 l 534 427 l 534 748 z "},",":{"ha":1389,"x_min":427,"x_max":855,"o":"m 534 321 l 748 321 l 748 214 l 855 214 l 855 -107 l 748 -107 l 748 -214 l 534 -214 l 534 -107 l 641 -107 l 641 0 l 427 0 l 427 214 l 534 214 l 534 321 m 427 -214 l 534 -214 l 534 -321 l 427 -321 l 427 -214 z "},"-":{"ha":1389,"x_min":107,"x_max":1175,"o":"m 107 427 l 1175 427 l 1175 214 l 107 214 l 107 427 z "},".":{"ha":1389,"x_min":427,"x_max":855,"o":"m 534 321 l 748 321 l 748 214 l 855 214 l 855 0 l 748 0 l 748 -107 l 534 -107 l 534 0 l 427 0 l 427 214 l 534 214 l 534 321 z "},":":{"ha":1389,"x_min":427,"x_max":855,"o":"m 534 855 l 748 855 l 748 748 l 855 748 l 855 534 l 748 534 l 748 427 l 534 427 l 534 534 l 427 534 l 427 748 l 534 748 l 534 855 m 534 321 l 748 321 l 748 214 l 855 214 l 855 0 l 748 0 l 748 -107 l 534 -107 l 534 0 l 427 0 l 427 214 l 534 214 l 534 321 z "},"=":{"ha":1389,"x_min":107,"x_max":1175,"o":"m 107 641 l 1175 641 l 1175 427 l 107 427 l 107 641 m 107 214 l 1175 214 l 1175 0 l 107 0 l 107 214 z "},"?":{"ha":1389,"x_min":0,"x_max":1389,"o":"m 214 962 l 1175 962 l 1175 855 l 1282 855 l 1282 748 l 1389 748 l 1389 427 l 1282 427 l 1282 321 l 855 321 l 855 214 l 748 214 l 748 107 l 427 107 l 427 214 l 534 214 l 534 321 l 641 321 l 641 427 l 748 427 l 748 534 l 962 534 l 962 748 l 855 748 l 855 855 l 427 855 l 427 641 l 321 641 l 321 534 l 0 534 l 0 748 l 107 748 l 107 855 l 214 855 l 214 962 m 427 0 l 748 0 l 748 -214 l 427 -214 l 427 0 z "},"A":{"ha":1389,"x_min":0,"x_max":1282,"o":"m 214 748 l 1068 748 l 1068 641 l 1175 641 l 1175 534 l 1282 534 l 1282 0 l 962 0 l 962 214 l 321 214 l 321 0 l 0 0 l 0 534 l 107 534 l 107 641 l 214 641 l 214 748 m 321 534 l 321 321 l 962 321 l 962 534 l 321 534 z "},"B":{"ha":1389,"x_min":0,"x_max":1282,"o":"m 0 748 l 1068 748 l 1068 641 l 1282 641 l 1282 427 l 1175 427 l 1175 321 l 1282 321 l 1282 107 l 1175 107 l 1175 0 l 0 0 l 0 748 m 427 534 l 427 427 l 1068 427 l 1068 534 l 427 534 m 427 321 l 427 214 l 1068 214 l 1068 321 l 427 321 z "},"C":{"ha":1389,"x_min":0,"x_max":1282,"o":"m 214 855 l 1175 855 l 1175 748 l 1282 748 l 1282 534 l 962 534 l 962 641 l 534 641 l 534 534 l 427 534 l 427 214 l 534 214 l 534 107 l 962 107 l 962 214 l 1282 214 l 1282 0 l 1175 0 l 1175 -107 l 214 -107 l 214 0 l 107 0 l 107 107 l 0 107 l 0 641 l 107 641 l 107 748 l 214 748 l 214 855 z "},"D":{"ha":1389,"x_min":0,"x_max":1282,"o":"m 0 855 l 962 855 l 962 748 l 1068 748 l 1068 641 l 1175 641 l 1175 534 l 1282 534 l 1282 214 l 1175 214 l 1175 107 l 1068 107 l 1068 0 l 962 0 l 962 -107 l 0 -107 l 0 855 m 321 641 l 321 107 l 962 107 l 962 214 l 1068 214 l 1068 534 l 962 534 l 962 641 l 321 641 z "},"E":{"ha":1389,"x_min":0,"x_max":1175,"o":"m 0 748 l 1175 748 l 1175 641 l 321 641 l 321 427 l 1068 427 l 1068 321 l 321 321 l 321 107 l 1175 107 l 1175 0 l 0 0 l 0 748 z "},"F":{"ha":1389,"x_min":0,"x_max":1282,"o":"m 0 748 l 1282 748 l 1282 641 l 321 641 l 321 427 l 1068 427 l 1068 214 l 321 214 l 321 0 l 0 0 l 0 748 z "},"G":{"ha":1389,"x_min":0,"x_max":1282,"o":"m 214 855 l 1068 855 l 1068 748 l 1175 748 l 1175 641 l 1282 641 l 1282 534 l 962 534 l 962 641 l 427 641 l 427 534 l 321 534 l 321 214 l 427 214 l 427 107 l 962 107 l 962 214 l 641 214 l 641 427 l 1282 427 l 1282 -214 l 1175 -214 l 1175 -321 l 214 -321 l 214 -214 l 107 -214 l 107 -107 l 321 -107 l 321 -214 l 962 -214 l 962 0 l 107 0 l 107 107 l 0 107 l 0 641 l 107 641 l 107 748 l 214 748 l 214 855 z "},"H":{"ha":1389,"x_min":0,"x_max":1282,"o":"m 0 855 l 321 855 l 321 427 l 962 427 l 962 855 l 1282 855 l 1282 0 l 962 0 l 962 321 l 321 321 l 321 0 l 0 0 l 0 855 z "},"I":{"ha":1389,"x_min":0,"x_max":1175,"o":"m 0 855 l 1175 855 l 1175 641 l 641 641 l 641 214 l 1175 214 l 1175 0 l 0 0 l 0 214 l 534 214 l 534 641 l 0 641 l 0 855 z "},"J":{"ha":1389,"x_min":0,"x_max":1282,"o":"m 427 855 l 1282 855 l 1282 -214 l 1175 -214 l 1175 -321 l 214 -321 l 214 -214 l 107 -214 l 107 -107 l 0 -107 l 0 214 l 321 214 l 321 -107 l 427 -107 l 427 -214 l 962 -214 l 962 641 l 427 641 l 427 855 z "},"K":{"ha":1389,"x_min":0,"x_max":1282,"o":"m 0 855 l 321 855 l 321 427 l 641 427 l 641 534 l 748 534 l 748 641 l 855 641 l 855 748 l 962 748 l 962 855 l 1282 855 l 1282 748 l 1175 748 l 1175 641 l 1068 641 l 1068 534 l 962 534 l 962 427 l 855 427 l 855 321 l 962 321 l 962 214 l 1068 214 l 1068 107 l 1175 107 l 1175 0 l 1282 0 l 1282 -107 l 962 -107 l 962 0 l 855 0 l 855 107 l 748 107 l 748 214 l 641 214 l 641 321 l 321 321 l 321 -107 l 0 -107 l 0 855 z "},"L":{"ha":1389,"x_min":0,"x_max":1282,"o":"m 0 855 l 321 855 l 321 0 l 1068 0 l 1068 214 l 1282 214 l 1282 -107 l 0 -107 l 0 855 z "},"M":{"ha":1389,"x_min":0,"x_max":1282,"o":"m 0 855 l 321 855 l 321 748 l 427 748 l 427 641 l 534 641 l 534 427 l 748 427 l 748 641 l 855 641 l 855 748 l 962 748 l 962 855 l 1282 855 l 1282 -107 l 962 -107 l 962 534 l 855 534 l 855 214 l 748 214 l 748 107 l 534 107 l 534 214 l 427 214 l 427 534 l 321 534 l 321 -107 l 0 -107 l 0 855 z "},"N":{"ha":1389,"x_min":0,"x_max":1282,"o":"m 0 855 l 321 855 l 321 748 l 427 748 l 427 641 l 534 641 l 534 534 l 641 534 l 641 427 l 748 427 l 748 321 l 855 321 l 855 214 l 962 214 l 962 855 l 1282 855 l 1282 -107 l 962 -107 l 962 0 l 855 0 l 855 107 l 748 107 l 748 214 l 641 214 l 641 321 l 534 321 l 534 427 l 427 427 l 427 534 l 321 534 l 321 -107 l 0 -107 l 0 855 z "},"O":{"ha":1389,"x_min":0,"x_max":1282,"o":"m 214 855 l 1068 855 l 1068 748 l 1175 748 l 1175 641 l 1282 641 l 1282 107 l 1175 107 l 1175 0 l 1068 0 l 1068 -107 l 214 -107 l 214 0 l 107 0 l 107 107 l 0 107 l 0 641 l 107 641 l 107 748 l 214 748 l 214 855 m 427 748 l 427 641 l 321 641 l 321 107 l 427 107 l 427 0 l 855 0 l 855 107 l 962 107 l 962 641 l 855 641 l 855 748 l 427 748 z "},"P":{"ha":1389,"x_min":0,"x_max":1282,"o":"m 0 855 l 1175 855 l 1175 748 l 1282 748 l 1282 321 l 1175 321 l 1175 214 l 321 214 l 321 -107 l 0 -107 l 0 855 m 321 748 l 321 321 l 962 321 l 962 748 l 321 748 z "},"Q":{"ha":1389,"x_min":0,"x_max":1282,"o":"m 214 855 l 1068 855 l 1068 748 l 1175 748 l 1175 641 l 1282 641 l 1282 107 l 1175 107 l 1175 0 l 1068 0 l 1068 -107 l 534 -107 l 534 -214 l 1175 -214 l 1175 -321 l 107 -321 l 107 -214 l 427 -214 l 427 -107 l 214 -107 l 214 0 l 107 0 l 107 107 l 0 107 l 0 641 l 107 641 l 107 748 l 214 748 l 214 855 m 427 748 l 427 641 l 321 641 l 321 214 l 427 214 l 427 107 l 534 107 l 534 214 l 641 214 l 641 321 l 748 321 l 748 214 l 641 214 l 641 107 l 855 107 l 855 214 l 962 214 l 962 641 l 855 641 l 855 748 l 427 748 m 641 321 l 748 321 l 748 214 l 641 214 l 641 321 z "},"R":{"ha":1389,"x_min":0,"x_max":1282,"o":"m 0 855 l 1175 855 l 1175 748 l 1282 748 l 1282 321 l 1175 321 l 1175 214 l 962 214 l 962 107 l 1068 107 l 1068 0 l 1175 0 l 1175 -107 l 855 -107 l 855 0 l 748 0 l 748 107 l 641 107 l 641 214 l 321 214 l 321 -107 l 0 -107 l 0 855 m 321 748 l 321 321 l 962 321 l 962 748 l 321 748 z "},"S":{"ha":1389,"x_min":0,"x_max":1282,"o":"m 107 962 l 1175 962 l 1175 855 l 1282 855 l 1282 641 l 962 641 l 962 748 l 321 748 l 321 427 l 1068 427 l 1068 321 l 1175 321 l 1175 214 l 1282 214 l 1282 -107 l 1175 -107 l 1175 -214 l 107 -214 l 107 -107 l 0 -107 l 0 107 l 214 107 l 214 0 l 962 0 l 962 214 l 855 214 l 855 321 l 107 321 l 107 427 l 0 427 l 0 855 l 107 855 l 107 962 z "},"T":{"ha":1389,"x_min":0,"x_max":1282,"o":"m 0 855 l 1282 855 l 1282 534 l 748 534 l 748 -107 l 534 -107 l 534 534 l 0 534 l 0 855 z "},"U":{"ha":1389,"x_min":0,"x_max":1282,"o":"m 0 855 l 321 855 l 321 214 l 427 214 l 427 107 l 855 107 l 855 214 l 962 214 l 962 855 l 1282 855 l 1282 107 l 1175 107 l 1175 0 l 1068 0 l 1068 -107 l 214 -107 l 214 0 l 107 0 l 107 107 l 0 107 l 0 855 z "},"V":{"ha":1389,"x_min":0,"x_max":1282,"o":"m 0 855 l 321 855 l 321 321 l 427 321 l 427 214 l 534 214 l 534 107 l 748 107 l 748 214 l 855 214 l 855 321 l 962 321 l 962 855 l 1282 855 l 1282 214 l 1175 214 l 1175 107 l 962 107 l 962 0 l 748 0 l 748 -107 l 534 -107 l 534 0 l 321 0 l 321 107 l 107 107 l 107 214 l 0 214 l 0 855 z "},"W":{"ha":1389,"x_min":0,"x_max":1282,"o":"m 0 855 l 321 855 l 321 214 l 427 214 l 427 321 l 534 321 l 534 427 l 748 427 l 748 321 l 855 321 l 855 214 l 962 214 l 962 855 l 1282 855 l 1282 -107 l 962 -107 l 962 0 l 855 0 l 855 107 l 748 107 l 748 214 l 534 214 l 534 107 l 427 107 l 427 0 l 321 0 l 321 -107 l 0 -107 l 0 855 z "},"X":{"ha":1389,"x_min":0,"x_max":1282,"o":"m 0 855 l 321 855 l 321 748 l 427 748 l 427 641 l 534 641 l 534 427 l 748 427 l 748 641 l 855 641 l 855 748 l 962 748 l 962 855 l 1282 855 l 1282 534 l 962 534 l 962 427 l 855 427 l 855 321 l 962 321 l 962 214 l 1282 214 l 1282 -107 l 962 -107 l 962 0 l 855 0 l 855 107 l 748 107 l 748 321 l 534 321 l 534 107 l 427 107 l 427 0 l 321 0 l 321 -107 l 0 -107 l 0 214 l 321 214 l 321 321 l 427 321 l 427 427 l 321 427 l 321 534 l 0 534 l 0 855 z "},"Y":{"ha":1389,"x_min":0,"x_max":1282,"o":"m 0 855 l 321 855 l 321 641 l 427 641 l 427 534 l 534 534 l 534 427 l 748 427 l 748 534 l 855 534 l 855 641 l 962 641 l 962 855 l 1282 855 l 1282 641 l 1175 641 l 1175 534 l 1068 534 l 1068 427 l 962 427 l 962 321 l 855 321 l 855 214 l 748 214 l 748 -107 l 534 -107 l 534 214 l 427 214 l 427 321 l 321 321 l 321 427 l 214 427 l 214 534 l 107 534 l 107 641 l 0 641 l 0 855 z "},"Z":{"ha":1389,"x_min":0,"x_max":1282,"o":"m 0 855 l 1282 855 l 1282 641 l 1175 641 l 1175 534 l 1068 534 l 1068 427 l 962 427 l 962 321 l 534 321 l 534 214 l 427 214 l 427 107 l 1282 107 l 1282 -107 l 0 -107 l 0 107 l 107 107 l 107 214 l 214 214 l 214 321 l 321 321 l 321 427 l 748 427 l 748 534 l 855 534 l 855 641 l 0 641 l 0 855 z "},"a":{"ha":1389,"x_min":0,"x_max":1282,"o":"m 214 855 l 1175 855 l 1175 748 l 1282 748 l 1282 0 l 1068 0 l 1068 107 l 962 107 l 962 0 l 107 0 l 107 107 l 0 107 l 0 427 l 107 427 l 107 534 l 962 534 l 962 748 l 214 748 l 214 855 m 321 427 l 321 107 l 855 107 l 855 214 l 962 214 l 962 427 l 321 427 m 107 748 l 214 748 l 214 641 l 107 641 l 107 748 z "},"b":{"ha":1389,"x_min":0,"x_max":1282,"o":"m 0 962 l 321 962 l 321 641 l 1175 641 l 1175 534 l 1282 534 l 1282 107 l 1175 107 l 1175 0 l 0 0 l 0 962 m 321 427 l 321 214 l 1068 214 l 1068 427 l 321 427 z "},"c":{"ha":1389,"x_min":0,"x_max":1282,"o":"m 107 748 l 1175 748 l 1175 641 l 321 641 l 321 107 l 1175 107 l 1175 0 l 107 0 l 107 107 l 0 107 l 0 641 l 107 641 l 107 748 m 1175 641 l 1282 641 l 1282 534 l 1175 534 l 1175 641 m 1175 214 l 1282 214 l 1282 107 l 1175 107 l 1175 214 z "},"d":{"ha":1389,"x_min":0,"x_max":1282,"o":"m 962 962 l 1282 962 l 1282 0 l 107 0 l 107 107 l 0 107 l 0 534 l 107 534 l 107 641 l 962 641 l 962 962 m 214 427 l 214 214 l 962 214 l 962 427 l 214 427 z "},"e":{"ha":1389,"x_min":0,"x_max":1282,"o":"m 321 855 l 1175 855 l 1175 748 l 1282 748 l 1282 321 l 321 321 l 321 107 l 1175 107 l 1175 0 l 107 0 l 107 107 l 0 107 l 0 641 l 107 641 l 107 748 l 321 748 l 321 855 m 321 641 l 321 427 l 962 427 l 962 641 l 321 641 m 1175 214 l 1282 214 l 1282 107 l 1175 107 l 1175 214 z "},"f":{"ha":1389,"x_min":0,"x_max":1282,"o":"m 641 962 l 1282 962 l 1282 748 l 1068 748 l 1068 855 l 855 855 l 855 427 l 1068 427 l 1068 321 l 855 321 l 855 -214 l 748 -214 l 748 -321 l 107 -321 l 107 -214 l 0 -214 l 0 0 l 214 0 l 214 -107 l 321 -107 l 321 -214 l 534 -214 l 534 321 l 321 321 l 321 427 l 534 427 l 534 855 l 641 855 l 641 962 z "},"g":{"ha":1389,"x_min":0,"x_max":1282,"o":"m 1068 1068 l 1282 1068 l 1282 962 l 1068 962 l 1068 1068 m 962 962 l 1068 962 l 1068 855 l 1175 855 l 1175 748 l 1282 748 l 1282 321 l 1175 321 l 1175 214 l 855 214 l 855 107 l 1068 107 l 1068 0 l 1175 0 l 1175 -214 l 1068 -214 l 1068 -321 l 107 -321 l 107 -214 l 0 -214 l 0 0 l 107 0 l 107 107 l 748 107 l 748 214 l 321 214 l 321 321 l 214 321 l 214 748 l 321 748 l 321 855 l 962 855 l 962 962 m 534 748 l 534 321 l 962 321 l 962 748 l 534 748 m 321 0 l 321 -214 l 855 -214 l 855 0 l 321 0 z "},"h":{"ha":1389,"x_min":0,"x_max":1282,"o":"m 0 962 l 321 962 l 321 534 l 1175 534 l 1175 427 l 1282 427 l 1282 0 l 962 0 l 962 427 l 321 427 l 321 0 l 0 0 l 0 962 z "},"i":{"ha":1389,"x_min":0,"x_max":1282,"o":"m 427 1068 l 748 1068 l 748 855 l 427 855 l 427 1068 m 214 748 l 855 748 l 855 641 l 748 641 l 748 107 l 1068 107 l 1068 0 l 321 0 l 321 107 l 427 107 l 427 641 l 214 641 l 214 748 m 107 641 l 214 641 l 214 534 l 107 534 l 107 641 m 0 534 l 107 534 l 107 427 l 0 427 l 0 534 m 1175 321 l 1282 321 l 1282 214 l 1175 214 l 1175 321 m 1068 214 l 1175 214 l 1175 107 l 1068 107 l 1068 214 z "},"j":{"ha":1389,"x_min":0,"x_max":1282,"o":"m 962 1068 l 1282 1068 l 1282 855 l 962 855 l 962 1068 m 427 748 l 1282 748 l 1282 -214 l 1175 -214 l 1175 -321 l 214 -321 l 214 -214 l 107 -214 l 107 -107 l 0 -107 l 0 214 l 214 214 l 214 -107 l 321 -107 l 321 -214 l 855 -214 l 855 -107 l 962 -107 l 962 641 l 427 641 l 427 748 z "},"k":{"ha":1389,"x_min":0,"x_max":1282,"o":"m 0 855 l 321 855 l 321 321 l 748 321 l 748 427 l 855 427 l 855 534 l 962 534 l 962 641 l 1282 641 l 1282 427 l 962 427 l 962 321 l 855 321 l 855 214 l 962 214 l 962 107 l 1282 107 l 1282 -107 l 962 -107 l 962 0 l 855 0 l 855 107 l 748 107 l 748 214 l 321 214 l 321 0 l 0 0 l 0 855 z "},"l":{"ha":1389,"x_min":0,"x_max":1282,"o":"m 107 962 l 855 962 l 855 107 l 1282 107 l 1282 0 l 0 0 l 0 107 l 534 107 l 534 855 l 107 855 l 107 962 z "},"m":{"ha":1389,"x_min":0,"x_max":1282,"o":"m 0 641 l 534 641 l 534 534 l 321 534 l 321 0 l 0 0 l 0 641 m 748 641 l 1175 641 l 1175 534 l 1282 534 l 1282 0 l 962 0 l 962 534 l 748 534 l 748 641 m 534 534 l 748 534 l 748 0 l 534 0 l 534 534 z "},"n":{"ha":1389,"x_min":0,"x_max":1282,"o":"m 0 641 l 321 641 l 321 534 l 427 534 l 427 427 l 321 427 l 321 0 l 0 0 l 0 641 m 427 641 l 1175 641 l 1175 534 l 1282 534 l 1282 0 l 962 0 l 962 534 l 427 534 l 427 641 z "},"o":{"ha":1389,"x_min":0,"x_max":1282,"o":"m 107 641 l 1175 641 l 1175 534 l 1282 534 l 1282 107 l 1175 107 l 1175 0 l 107 0 l 107 107 l 0 107 l 0 534 l 107 534 l 107 641 m 321 534 l 321 107 l 962 107 l 962 534 l 321 534 z "},"p":{"ha":1389,"x_min":0,"x_max":1282,"o":"m 0 641 l 1175 641 l 1175 534 l 1282 534 l 1282 214 l 1175 214 l 1175 107 l 321 107 l 321 -321 l 0 -321 l 0 641 m 321 534 l 321 214 l 962 214 l 962 534 l 321 534 z "},"q":{"ha":1389,"x_min":0,"x_max":1282,"o":"m 107 641 l 1282 641 l 1282 -321 l 962 -321 l 962 107 l 107 107 l 107 214 l 0 214 l 0 534 l 107 534 l 107 641 m 321 534 l 321 214 l 962 214 l 962 534 l 321 534 z "},"r":{"ha":1389,"x_min":0,"x_max":1282,"o":"m 0 748 l 321 748 l 321 641 l 427 641 l 427 534 l 321 534 l 321 -107 l 0 -107 l 0 748 m 427 748 l 1282 748 l 1282 427 l 962 427 l 962 641 l 427 641 l 427 748 z "},"s":{"ha":1389,"x_min":0,"x_max":1282,"o":"m 107 748 l 1282 748 l 1282 534 l 1068 534 l 1068 641 l 321 641 l 321 427 l 427 427 l 427 321 l 1175 321 l 1175 214 l 1282 214 l 1282 0 l 1175 0 l 1175 -107 l 0 -107 l 0 107 l 214 107 l 214 0 l 962 0 l 962 214 l 321 214 l 321 321 l 0 321 l 0 641 l 107 641 l 107 748 z "},"t":{"ha":1389,"x_min":0,"x_max":1282,"o":"m 641 962 l 748 962 l 748 641 l 1282 641 l 1282 534 l 748 534 l 748 0 l 1068 0 l 1068 107 l 1282 107 l 1282 0 l 1175 0 l 1175 -107 l 1068 -107 l 1068 -214 l 534 -214 l 534 -107 l 427 -107 l 427 534 l 0 534 l 0 641 l 427 641 l 427 748 l 534 748 l 534 855 l 641 855 l 641 962 z "},"u":{"ha":1389,"x_min":0,"x_max":1282,"o":"m 0 748 l 321 748 l 321 107 l 427 107 l 427 0 l 748 0 l 748 107 l 855 107 l 855 214 l 962 214 l 962 748 l 1282 748 l 1282 -107 l 962 -107 l 962 0 l 855 0 l 855 -107 l 214 -107 l 214 0 l 107 0 l 107 107 l 0 107 l 0 748 z "},"v":{"ha":1389,"x_min":0,"x_max":1282,"o":"m 0 748 l 321 748 l 321 321 l 427 321 l 427 107 l 534 107 l 534 0 l 748 0 l 748 107 l 855 107 l 855 321 l 962 321 l 962 748 l 1282 748 l 1282 107 l 1068 107 l 1068 0 l 855 0 l 855 -107 l 427 -107 l 427 0 l 214 0 l 214 107 l 0 107 l 0 748 z "},"w":{"ha":1389,"x_min":0,"x_max":1282,"o":"m 0 748 l 321 748 l 321 0 l 427 0 l 427 107 l 534 107 l 534 321 l 748 321 l 748 107 l 855 107 l 855 0 l 962 0 l 962 748 l 1282 748 l 1282 0 l 1068 0 l 1068 -107 l 748 -107 l 748 0 l 534 0 l 534 -107 l 214 -107 l 214 0 l 0 0 l 0 748 z "},"x":{"ha":1389,"x_min":0,"x_max":1282,"o":"m 0 748 l 321 748 l 321 534 l 534 534 l 534 427 l 748 427 l 748 534 l 962 534 l 962 748 l 1282 748 l 1282 534 l 1068 534 l 1068 427 l 855 427 l 855 214 l 1068 214 l 1068 107 l 1282 107 l 1282 -107 l 962 -107 l 962 107 l 748 107 l 748 214 l 534 214 l 534 107 l 321 107 l 321 -107 l 0 -107 l 0 107 l 214 107 l 214 214 l 427 214 l 427 427 l 214 427 l 214 534 l 0 534 l 0 748 z "},"y":{"ha":1389,"x_min":0,"x_max":1282,"o":"m 0 748 l 321 748 l 321 214 l 855 214 l 855 107 l 107 107 l 107 214 l 0 214 l 0 748 m 962 748 l 1282 748 l 1282 -214 l 1175 -214 l 1175 -321 l 214 -321 l 214 -214 l 962 -214 l 962 214 l 855 214 l 855 321 l 962 321 l 962 748 m 107 -107 l 214 -107 l 214 -214 l 107 -214 l 107 -107 z "},"z":{"ha":1389,"x_min":0,"x_max":1282,"o":"m 0 748 l 1282 748 l 1282 534 l 1068 534 l 1068 427 l 962 427 l 962 534 l 0 534 l 0 748 m 321 427 l 962 427 l 962 321 l 855 321 l 855 214 l 321 214 l 321 427 m 214 214 l 321 214 l 321 107 l 1282 107 l 1282 -107 l 0 -107 l 0 107 l 214 107 l 214 214 z "}}}
